# Blender 5.2.0 LTS
# www.blender.org
mtllib zcity_hands_real_gmod.mtl
o Real_GMod_Hands_Mesh
v 0.328750 0.058761 -0.942587
v 0.012243 -0.989654 -0.142952
v -0.087393 -0.959484 -0.267867
v -0.118724 -0.622749 -0.773362
v 0.224586 -0.798094 0.559113
v 0.362334 -0.926649 0.100180
v 0.401004 -0.911515 -0.091302
v 0.363741 -0.887754 -0.282107
v -0.915585 -0.402055 0.007449
v -0.621697 0.774134 0.119205
v -0.621672 0.774154 0.119201
v 0.112863 0.988445 0.101182
v 0.593814 0.802749 0.054572
v 0.992103 -0.106518 -0.066227
v 0.802763 -0.586472 -0.107807
v -0.112847 -0.988524 -0.100431
v -0.662850 -0.747441 -0.044278
v 0.975246 -0.090746 -0.201644
v 0.740397 -0.151447 0.654886
v 0.054971 -0.107696 0.992663
v 0.081123 0.092133 -0.992437
v -0.990280 0.120216 -0.069950
v -0.844949 0.220057 -0.487480
v -0.862398 -0.013192 -0.506059
v -0.855446 0.148368 -0.496184
v -0.829620 0.292301 -0.475700
v -0.866971 -0.007275 -0.498305
v -0.867983 -0.058800 -0.493101
v -0.852927 0.168709 -0.494017
v -0.843933 0.226049 -0.486496
v -0.828427 0.296490 -0.475187
v -0.807574 0.368504 -0.460467
v -0.117237 -0.975355 -0.186917
v -0.480659 -0.593790 -0.645275
v -0.770356 -0.634208 0.065808
v -0.476679 -0.713424 0.513618
v -0.465549 -0.779555 -0.418997
v -0.559011 -0.822189 0.107296
v -0.060595 -0.870124 0.489094
v -0.197546 -0.960054 -0.198170
v -0.235996 -0.970069 -0.057208
v -0.170414 -0.985212 0.017758
v 0.287533 -0.957679 -0.013212
v 0.123654 -0.896942 -0.424506
v -0.224805 -0.779807 -0.584264
v -0.494210 -0.852185 -0.171867
v -0.330286 -0.912987 0.239511
v 0.113882 -0.963846 0.240899
v 0.366214 0.927041 0.080507
v 0.366159 0.927063 0.080510
v 0.366118 0.927111 0.080142
v 0.366145 0.927103 0.080115
v 0.365423 0.927343 0.080625
v 0.365411 0.927403 0.079990
v 0.365491 0.927346 0.080287
v 0.365437 0.927362 0.080343
v -0.403605 0.906937 0.120697
v -0.403562 0.906950 0.120748
v -0.403591 0.906947 0.120674
v -0.403574 0.906956 0.120661
v -0.403646 0.906882 0.120978
v -0.405136 0.906249 0.120733
v -0.404998 0.906295 0.120851
v -0.405032 0.906352 0.120308
v -0.405033 0.906285 0.120817
v -0.315061 0.131999 -0.939847
v -0.315092 0.132007 -0.939836
v -0.315101 0.132002 -0.939834
v -0.315129 0.132004 -0.939824
v -0.304682 0.131173 -0.943378
v -0.304722 0.131167 -0.943366
v -0.304714 0.131187 -0.943366
v -0.304695 0.131192 -0.943372
v -0.304719 0.131180 -0.943366
v 0.856599 -0.148295 0.494214
v 0.854322 -0.148432 0.498098
v 0.855476 -0.148372 0.496131
v 0.855500 -0.148365 0.496093
v 0.855467 -0.148370 0.496148
v 0.855448 -0.148381 0.496177
v -0.895837 0.433963 0.095666
v -0.626917 0.770159 0.117600
v 0.441088 0.894586 0.071814
v 0.777163 0.628824 0.024446
v 0.693437 -0.711030 -0.116541
v 0.154203 -0.981203 -0.116025
v -0.359701 -0.929478 -0.081771
v -0.912994 -0.407933 0.005732
v 0.992705 -0.100903 -0.065992
v 0.944537 -0.069434 -0.320980
v 0.663260 0.006267 -0.748363
v 0.449031 0.045541 -0.892355
v -0.842705 0.154527 -0.515723
v -0.992397 0.121175 -0.021545
v -0.779325 0.030713 0.625867
v -0.112921 -0.988490 -0.100675
v 0.143738 -0.111219 0.983346
v -0.112869 -0.988485 -0.100790
v -0.112857 -0.988456 -0.101087
v -0.112864 -0.988447 -0.101166
v -0.112877 -0.988442 -0.101200
v -0.112863 -0.988455 -0.101088
v -0.112887 -0.988458 -0.101028
v -0.112852 -0.988490 -0.100758
v -0.112850 -0.988490 -0.100755
v 0.055042 -0.107710 0.992658
v 0.055035 -0.107706 0.992658
v 0.055039 -0.107714 0.992657
v 0.055041 -0.107699 0.992659
v 0.055044 -0.107691 0.992659
v 0.055043 -0.107709 0.992657
v 0.055041 -0.107706 0.992658
v 0.055042 -0.107702 0.992658
v 0.055042 -0.107704 0.992658
v -0.543083 -0.834942 0.089066
v -0.575273 -0.812575 -0.093715
v -0.265184 -0.947102 -0.180763
v -0.273755 -0.802513 -0.530123
v -0.165901 -0.949914 -0.264841
v 0.093028 -0.844580 -0.527286
v 0.021178 -0.976356 -0.215129
v 0.054775 -0.986205 -0.156201
v 0.044945 -0.998734 -0.022587
v 0.003000 -0.999491 0.031750
v -0.189666 -0.980142 0.057872
