version 1
nodes
0 "ValveBiped.Bip01_Spine4" -1
1 "ValveBiped.Bip01_R_Clavicle" 0
2 "ValveBiped.Bip01_R_UpperArm" 1
3 "ValveBiped.Bip01_R_Forearm" 2
4 "ValveBiped.Bip01_R_Hand" 3
5 "ValveBiped.Bip01_R_Finger0" 4
6 "ValveBiped.Bip01_R_Finger1" 4
7 "ValveBiped.Bip01_R_Finger2" 4
8 "ValveBiped.Bip01_L_Clavicle" 0
9 "ValveBiped.Bip01_L_UpperArm" 8
10 "ValveBiped.Bip01_L_Forearm" 9
11 "ValveBiped.Bip01_L_Hand" 10
12 "ValveBiped.Bip01_L_Finger0" 11
13 "ValveBiped.Bip01_L_Finger1" 11
14 "ValveBiped.Bip01_L_Finger2" 11
end
skeleton
time 0
0 0 0 0 0 0 0
1 -6 0 7 0 0 0
2 -4 0 0 0 0 0
3 0 10 0 0 0 0
4 0 10 0 0 0 0
5 1 2 0 0 0 0
6 1 3 0 0 0 0
7 0 3 0 0 0 0
8 6 0 7 0 0 0
9 4 0 0 0 0 0
10 0 10 0 0 0 0
11 0 10 0 0 0 0
12 -1 2 0 0 0 0
13 -1 3 0 0 0 0
14 0 3 0 0 0 0
end
triangles
end
