# Blender 5.2.0 LTS
# www.blender.org
mtllib zcity_hands_mesh.mtl
o ZCity_3D_Hands_Mesh
v -0.311057 -0.074246 -0.339413
v -0.417123 0.137886 -0.155701
v -0.303760 -0.074858 -0.334494
v -0.409826 0.137274 -0.150782
v -0.297355 -0.076668 -0.328705
v -0.403421 0.135464 -0.144993
v -0.292087 -0.079609 -0.322268
v -0.398153 0.132523 -0.138556
v -0.288160 -0.083566 -0.315432
v -0.394226 0.128566 -0.131720
v -0.285725 -0.088388 -0.308458
v -0.391791 0.123744 -0.124746
v -0.284874 -0.093889 -0.301614
v -0.390940 0.118243 -0.117902
v -0.285641 -0.099858 -0.295164
v -0.391707 0.112274 -0.111453
v -0.287996 -0.106066 -0.289356
v -0.394062 0.106066 -0.105644
v -0.291849 -0.112274 -0.284412
v -0.397915 0.099858 -0.100700
v -0.297051 -0.118243 -0.280523
v -0.403117 0.093889 -0.096811
v -0.303403 -0.123744 -0.277838
v -0.409469 0.088388 -0.094126
v -0.310660 -0.128566 -0.276460
v -0.416726 0.083566 -0.092749
v -0.318544 -0.132523 -0.276443
v -0.424610 0.079609 -0.092731
v -0.326752 -0.135464 -0.277786
v -0.432818 0.076668 -0.094075
v -0.334968 -0.137274 -0.280439
v -0.441034 0.074858 -0.096727
v -0.342877 -0.137886 -0.284299
v -0.448943 0.074246 -0.100587
v -0.350174 -0.137274 -0.289218
v -0.456240 0.074858 -0.105506
v -0.356579 -0.135464 -0.295007
v -0.462645 0.076668 -0.111295
v -0.361847 -0.132523 -0.301444
v -0.467913 0.079609 -0.117732
v -0.365774 -0.128566 -0.308280
v -0.471840 0.083566 -0.124568
v -0.368209 -0.123744 -0.315254
v -0.474275 0.088388 -0.131542
v -0.369060 -0.118243 -0.322098
v -0.475126 0.093889 -0.138386
v -0.368293 -0.112274 -0.328547
v -0.474359 0.099858 -0.144836
v -0.365938 -0.106066 -0.334356
v -0.472004 0.106066 -0.150644
v -0.362085 -0.099858 -0.339300
v -0.468151 0.112274 -0.155588
v -0.356883 -0.093889 -0.343189
v -0.462949 0.118243 -0.159477
v -0.350531 -0.088388 -0.345874
v -0.456597 0.123744 -0.162162
v -0.343274 -0.083566 -0.347251
v -0.449340 0.128566 -0.163540
v -0.335390 -0.079609 -0.347269
v -0.441456 0.132523 -0.163557
v -0.327182 -0.076668 -0.345925
v -0.433248 0.135464 -0.162214
v -0.318966 -0.074858 -0.343273
v -0.425032 0.137274 -0.159561
v -0.290945 -0.062859 -0.479829
v -0.335374 0.012141 -0.357759
v -0.283743 -0.063525 -0.476799
v -0.328173 0.011475 -0.354729
v -0.277081 -0.065496 -0.473163
v -0.321511 0.009504 -0.351093
v -0.271215 -0.068697 -0.469061
v -0.315645 0.006303 -0.346991
v -0.266370 -0.073005 -0.464650
v -0.310799 0.001995 -0.342581
v -0.262732 -0.078254 -0.460101
v -0.307162 -0.003254 -0.338031
v -0.260441 -0.084243 -0.455588
v -0.304871 -0.009243 -0.333518
v -0.259585 -0.090742 -0.451283
v -0.304015 -0.015742 -0.329214
v -0.260197 -0.097500 -0.447354
v -0.304627 -0.022500 -0.325284
v -0.262254 -0.104258 -0.443950
v -0.306684 -0.029258 -0.321881
v -0.265676 -0.110757 -0.441203
v -0.310106 -0.035757 -0.319134
v -0.270332 -0.116746 -0.439218
v -0.314762 -0.041746 -0.317149
v -0.276044 -0.121995 -0.438072
v -0.320473 -0.046995 -0.316002
v -0.282590 -0.126303 -0.437808
v -0.327020 -0.051303 -0.315738
v -0.289721 -0.129504 -0.438436
v -0.334150 -0.054504 -0.316367
v -0.297161 -0.131475 -0.439933
v -0.341591 -0.056475 -0.317863
v -0.304626 -0.132141 -0.442241
v -0.349055 -0.057141 -0.320171
v -0.311827 -0.131475 -0.445271
v -0.356257 -0.056475 -0.323201
v -0.318489 -0.129504 -0.448907
v -0.362919 -0.054504 -0.326837
v -0.324355 -0.126303 -0.453009
v -0.368785 -0.051303 -0.330939
v -0.329201 -0.121995 -0.457419
v -0.373630 -0.046995 -0.335350
v -0.332839 -0.116746 -0.461969
v -0.377268 -0.041746 -0.339899
v -0.335129 -0.110757 -0.466482
v -0.379559 -0.035757 -0.344413
v -0.335985 -0.104258 -0.470786
v -0.380415 -0.029258 -0.348717
v -0.335373 -0.097500 -0.474716
v -0.379803 -0.022500 -0.352646
v -0.333316 -0.090742 -0.478119
v -0.377746 -0.015742 -0.356050
v -0.329894 -0.084243 -0.480866
v -0.374324 -0.009243 -0.358797
v -0.325238 -0.078254 -0.482851
v -0.369668 -0.003254 -0.360782
v -0.319527 -0.073005 -0.483998
v -0.363957 0.001995 -0.361928
v -0.312980 -0.068697 -0.484262
v -0.357410 0.006303 -0.362192
v -0.305850 -0.065496 -0.483634
v -0.350279 0.009504 -0.361564
v -0.298409 -0.063525 -0.482137
v -0.342839 0.011475 -0.360067
v 0.311057 -0.074246 -0.339413
v 0.417123 0.137886 -0.155701
v 0.318966 -0.074858 -0.343273
v 0.425032 0.137274 -0.159561
v 0.327182 -0.076668 -0.345925
v 0.433248 0.135464 -0.162214
v 0.335390 -0.079609 -0.347269
v 0.441456 0.132523 -0.163557
v 0.343274 -0.083566 -0.347251
v 0.449340 0.128566 -0.163540
v 0.350531 -0.088388 -0.345874
v 0.456597 0.123744 -0.162162
v 0.356883 -0.093889 -0.343189
v 0.462949 0.118243 -0.159477
v 0.362085 -0.099858 -0.339300
v 0.468151 0.112274 -0.155588
v 0.365938 -0.106066 -0.334356
v 0.472004 0.106066 -0.150644
v 0.368293 -0.112274 -0.328547
v 0.474359 0.099858 -0.144836
v 0.369060 -0.118243 -0.322098
v 0.475126 0.093889 -0.138386
v 0.368209 -0.123744 -0.315254
v 0.474275 0.088388 -0.131542
v 0.365774 -0.128566 -0.308280
v 0.471840 0.083566 -0.124568
v 0.361847 -0.132523 -0.301444
v 0.467913 0.079609 -0.117732
v 0.356579 -0.135464 -0.295007
v 0.462645 0.076668 -0.111295
v 0.350174 -0.137274 -0.289218
v 0.456240 0.074858 -0.105506
v 0.342877 -0.137886 -0.284299
v 0.448943 0.074246 -0.100587
v 0.334968 -0.137274 -0.280439
v 0.441034 0.074858 -0.096727
v 0.326752 -0.135464 -0.277786
v 0.432818 0.076668 -0.094075
v 0.318544 -0.132523 -0.276443
v 0.424610 0.079609 -0.092731
v 0.310660 -0.128566 -0.276460
v 0.416726 0.083566 -0.092749
v 0.303403 -0.123744 -0.277838
v 0.409469 0.088388 -0.094126
v 0.297051 -0.118243 -0.280523
v 0.403117 0.093889 -0.096811
v 0.291849 -0.112274 -0.284412
v 0.397914 0.099858 -0.100700
v 0.287996 -0.106066 -0.289356
v 0.394062 0.106066 -0.105644
v 0.285641 -0.099858 -0.295164
v 0.391707 0.112274 -0.111452
v 0.284874 -0.093889 -0.301614
v 0.390940 0.118243 -0.117902
v 0.285725 -0.088388 -0.308457
v 0.391791 0.123744 -0.124746
v 0.288160 -0.083566 -0.315432
v 0.394226 0.128566 -0.131720
v 0.292087 -0.079609 -0.322268
v 0.398153 0.132523 -0.138556
v 0.297355 -0.076668 -0.328705
v 0.403421 0.135464 -0.144993
v 0.303760 -0.074858 -0.334494
v 0.409826 0.137274 -0.150782
v 0.290945 -0.062859 -0.479829
v 0.335374 0.012141 -0.357759
v 0.298409 -0.063525 -0.482137
v 0.342839 0.011475 -0.360067
v 0.305850 -0.065496 -0.483633
v 0.350279 0.009504 -0.361564
v 0.312980 -0.068697 -0.484262
v 0.357410 0.006303 -0.362192
v 0.319527 -0.073005 -0.483998
v 0.363956 0.001995 -0.361928
v 0.325238 -0.078254 -0.482851
v 0.369668 -0.003254 -0.360782
v 0.329894 -0.084243 -0.480866
v 0.374324 -0.009243 -0.358797
v 0.333316 -0.090742 -0.478119
v 0.377746 -0.015742 -0.356050
v 0.335373 -0.097500 -0.474716
v 0.379803 -0.022500 -0.352646
v 0.335985 -0.104258 -0.470786
v 0.380415 -0.029258 -0.348717
v 0.335129 -0.110757 -0.466482
v 0.379559 -0.035757 -0.344413
v 0.332839 -0.116746 -0.461969
v 0.377268 -0.041746 -0.339899
v 0.329201 -0.121995 -0.457419
v 0.373630 -0.046995 -0.335350
v 0.324355 -0.126303 -0.453009
v 0.368785 -0.051303 -0.330939
v 0.318489 -0.129504 -0.448907
v 0.362919 -0.054504 -0.326837
v 0.311827 -0.131475 -0.445271
v 0.356257 -0.056475 -0.323201
v 0.304626 -0.132141 -0.442241
v 0.349055 -0.057141 -0.320171
v 0.297161 -0.131475 -0.439933
v 0.341591 -0.056475 -0.317863
v 0.289721 -0.129504 -0.438436
v 0.334150 -0.054504 -0.316366
v 0.282590 -0.126303 -0.437808
v 0.327020 -0.051303 -0.315738
v 0.276044 -0.121995 -0.438072
v 0.320473 -0.046995 -0.316002
v 0.270332 -0.116746 -0.439218
v 0.314762 -0.041746 -0.317149
v 0.265676 -0.110757 -0.441203
v 0.310106 -0.035757 -0.319134
v 0.262254 -0.104258 -0.443950
v 0.306684 -0.029258 -0.321881
v 0.260197 -0.097500 -0.447354
v 0.304627 -0.022500 -0.325284
v 0.259585 -0.090742 -0.451283
v 0.304015 -0.015742 -0.329214
v 0.260441 -0.084243 -0.455588
v 0.304871 -0.009243 -0.333518
v 0.262732 -0.078254 -0.460101
v 0.307161 -0.003254 -0.338031
v 0.266370 -0.073005 -0.464650
v 0.310799 0.001995 -0.342581
v 0.271215 -0.068697 -0.469061
v 0.315645 0.006303 -0.346991
v 0.277081 -0.065496 -0.473163
v 0.321511 0.009504 -0.351093
v 0.283743 -0.063525 -0.476799
v 0.328173 0.011475 -0.354729
vn 0.4367 0.7037 -0.5604
vn 0.5897 0.6767 -0.4409
vn 0.7200 0.6236 -0.3044
vn 0.8227 0.5466 -0.1562
vn 0.8937 0.4486 -0.0020
vn 0.9304 0.3333 0.1523
vn 0.9314 0.2053 0.3007
vn 0.8965 0.0693 0.4376
vn 0.8272 -0.0693 0.5576
vn 0.7261 -0.2053 0.6562
vn 0.5971 -0.3333 0.7296
vn 0.4452 -0.4486 0.7750
vn 0.2761 -0.5466 0.7906
vn 0.0964 -0.6236 0.7758
vn -0.0869 -0.6767 0.7311
vn -0.2670 -0.7037 0.6584
vn -0.4367 -0.7037 0.5604
vn -0.5897 -0.6767 0.4409
vn -0.7200 -0.6236 0.3044
vn -0.8227 -0.5466 0.1562
vn -0.8937 -0.4486 0.0020
vn -0.9304 -0.3333 -0.1523
vn -0.9314 -0.2053 -0.3007
vn -0.8965 -0.0693 -0.4376
vn -0.8272 0.0693 -0.5576
vn -0.7261 0.2053 -0.6562
vn -0.5971 0.3333 -0.7296
vn -0.4452 0.4486 -0.7750
vn -0.2761 0.5466 -0.7906
vn -0.0964 0.6236 -0.7758
vn -0.3536 0.7071 0.6124
vn 0.0869 0.6767 -0.7311
vn 0.2670 0.7037 -0.6584
vn 0.3536 -0.7071 -0.6124
vn 0.2623 0.8619 -0.4341
vn 0.4364 0.8287 -0.3503
vn 0.5938 0.7638 -0.2531
vn 0.7283 0.6694 -0.1462
vn 0.8349 0.5494 -0.0337
vn 0.9093 0.4082 0.0802
vn 0.9489 0.2514 0.1909
vn 0.9519 0.0849 0.2943
vn 0.9184 -0.0849 0.3864
vn 0.8496 -0.2514 0.4637
vn 0.7481 -0.4082 0.5231
vn 0.6179 -0.5494 0.5625
vn 0.4639 -0.6694 0.5802
vn 0.2921 -0.7638 0.5756
vn 0.1091 -0.8287 0.5489
vn -0.0781 -0.8619 0.5011
vn -0.2623 -0.8619 0.4341
vn -0.4364 -0.8287 0.3503
vn -0.5938 -0.7638 0.2531
vn -0.7283 -0.6694 0.1462
vn -0.8349 -0.5494 0.0337
vn -0.9093 -0.4082 -0.0802
vn -0.9489 -0.2514 -0.1909
vn -0.9519 -0.0849 -0.2943
vn -0.9184 0.0849 -0.3864
vn -0.8496 0.2514 -0.4637
vn -0.7481 0.4082 -0.5231
vn -0.6179 0.5494 -0.5625
vn -0.4639 0.6694 -0.5802
vn -0.2922 0.7638 -0.5756
vn -0.2962 0.5000 0.8138
vn -0.1091 0.8287 -0.5489
vn 0.0781 0.8619 -0.5011
vn 0.2962 -0.5000 -0.8138
vn -0.2670 0.7037 -0.6584
vn -0.0869 0.6767 -0.7311
vn 0.0964 0.6236 -0.7758
vn 0.2761 0.5466 -0.7906
vn 0.4452 0.4486 -0.7750
vn 0.5971 0.3333 -0.7296
vn 0.7261 0.2053 -0.6562
vn 0.8272 0.0693 -0.5576
vn 0.8965 -0.0693 -0.4376
vn 0.9314 -0.2053 -0.3007
vn 0.9304 -0.3333 -0.1523
vn 0.8937 -0.4486 0.0020
vn 0.8227 -0.5466 0.1562
vn 0.7201 -0.6236 0.3044
vn 0.5897 -0.6767 0.4409
vn 0.4367 -0.7037 0.5604
vn 0.2670 -0.7037 0.6584
vn 0.0869 -0.6767 0.7311
vn -0.0964 -0.6236 0.7758
vn -0.2761 -0.5466 0.7906
vn -0.4452 -0.4486 0.7750
vn -0.5971 -0.3333 0.7296
vn -0.7261 -0.2053 0.6562
vn -0.8272 -0.0693 0.5576
vn -0.8965 0.0693 0.4376
vn -0.9314 0.2053 0.3007
vn -0.9304 0.3333 0.1523
vn -0.8937 0.4486 -0.0020
vn -0.8227 0.5466 -0.1562
vn -0.7200 0.6236 -0.3044
vn 0.3536 0.7071 0.6124
vn -0.5897 0.6767 -0.4409
vn -0.4367 0.7037 -0.5604
vn -0.3536 -0.7071 -0.6124
vn -0.0781 0.8619 -0.5011
vn 0.1091 0.8287 -0.5489
vn 0.2921 0.7638 -0.5756
vn 0.4639 0.6694 -0.5802
vn 0.6179 0.5494 -0.5625
vn 0.7481 0.4082 -0.5231
vn 0.8496 0.2514 -0.4637
vn 0.9184 0.0849 -0.3864
vn 0.9519 -0.0849 -0.2943
vn 0.9489 -0.2514 -0.1909
vn 0.9093 -0.4082 -0.0802
vn 0.8349 -0.5494 0.0337
vn 0.7283 -0.6694 0.1462
vn 0.5938 -0.7638 0.2531
vn 0.4364 -0.8287 0.3503
vn 0.2623 -0.8619 0.4341
vn 0.0781 -0.8619 0.5011
vn -0.1091 -0.8287 0.5489
vn -0.2921 -0.7638 0.5756
vn -0.4639 -0.6694 0.5802
vn -0.6179 -0.5494 0.5625
vn -0.7481 -0.4082 0.5231
vn -0.8496 -0.2514 0.4637
vn -0.9184 -0.0849 0.3864
vn -0.9519 0.0849 0.2943
vn -0.9489 0.2514 0.1909
vn -0.9093 0.4082 0.0802
vn -0.8349 0.5494 -0.0337
vn -0.7283 0.6694 -0.1462
vn -0.5938 0.7638 -0.2531
vn 0.2962 0.5000 0.8138
vn -0.4364 0.8287 -0.3503
vn -0.2623 0.8619 -0.4341
vn -0.2962 -0.5000 -0.8138
vt 1.000000 0.500000
vt 1.000000 1.000000
vt 0.968750 1.000000
vt 0.968750 0.500000
vt 0.937500 1.000000
vt 0.937500 0.500000
vt 0.906250 1.000000
vt 0.906250 0.500000
vt 0.875000 1.000000
vt 0.875000 0.500000
vt 0.843750 1.000000
vt 0.843750 0.500000
vt 0.812500 1.000000
vt 0.812500 0.500000
vt 0.781250 1.000000
vt 0.781250 0.500000
vt 0.750000 1.000000
vt 0.750000 0.500000
vt 0.718750 1.000000
vt 0.718750 0.500000
vt 0.687500 1.000000
vt 0.687500 0.500000
vt 0.656250 1.000000
vt 0.656250 0.500000
vt 0.625000 1.000000
vt 0.625000 0.500000
vt 0.593750 1.000000
vt 0.593750 0.500000
vt 0.562500 1.000000
vt 0.562500 0.500000
vt 0.531250 1.000000
vt 0.531250 0.500000
vt 0.500000 1.000000
vt 0.500000 0.500000
vt 0.468750 1.000000
vt 0.468750 0.500000
vt 0.437500 1.000000
vt 0.437500 0.500000
vt 0.406250 1.000000
vt 0.406250 0.500000
vt 0.375000 1.000000
vt 0.375000 0.500000
vt 0.343750 1.000000
vt 0.343750 0.500000
vt 0.312500 1.000000
vt 0.312500 0.500000
vt 0.281250 1.000000
vt 0.281250 0.500000
vt 0.250000 1.000000
vt 0.250000 0.500000
vt 0.218750 1.000000
vt 0.218750 0.500000
vt 0.187500 1.000000
vt 0.187500 0.500000
vt 0.156250 1.000000
vt 0.156250 0.500000
vt 0.125000 1.000000
vt 0.125000 0.500000
vt 0.093750 1.000000
vt 0.093750 0.500000
vt 0.062500 1.000000
vt 0.062500 0.500000
vt 0.296822 0.485388
vt 0.250000 0.490000
vt 0.203178 0.485388
vt 0.158156 0.471731
vt 0.116663 0.449553
vt 0.080294 0.419706
vt 0.050447 0.383337
vt 0.028269 0.341844
vt 0.014612 0.296822
vt 0.010000 0.250000
vt 0.014612 0.203178
vt 0.028269 0.158156
vt 0.050447 0.116663
vt 0.080294 0.080294
vt 0.116663 0.050447
vt 0.158156 0.028269
vt 0.203178 0.014612
vt 0.250000 0.010000
vt 0.296822 0.014612
vt 0.341844 0.028269
vt 0.383337 0.050447
vt 0.419706 0.080294
vt 0.449553 0.116663
vt 0.471731 0.158156
vt 0.485388 0.203178
vt 0.490000 0.250000
vt 0.485388 0.296822
vt 0.471731 0.341844
vt 0.449553 0.383337
vt 0.419706 0.419706
vt 0.383337 0.449553
vt 0.341844 0.471731
vt 0.031250 1.000000
vt 0.031250 0.500000
vt 0.000000 1.000000
vt 0.000000 0.500000
vt 0.750000 0.490000
vt 0.796822 0.485388
vt 0.841844 0.471731
vt 0.883337 0.449553
vt 0.919706 0.419706
vt 0.949553 0.383337
vt 0.971731 0.341844
vt 0.985388 0.296822
vt 0.990000 0.250000
vt 0.985388 0.203178
vt 0.971731 0.158156
vt 0.949553 0.116663
vt 0.919706 0.080294
vt 0.883337 0.050447
vt 0.841844 0.028269
vt 0.796822 0.014612
vt 0.750000 0.010000
vt 0.703178 0.014612
vt 0.658156 0.028269
vt 0.616663 0.050447
vt 0.580294 0.080294
vt 0.550447 0.116663
vt 0.528269 0.158156
vt 0.514612 0.203178
vt 0.510000 0.250000
vt 0.514612 0.296822
vt 0.528269 0.341844
vt 0.550447 0.383337
vt 0.580294 0.419706
vt 0.616663 0.449553
vt 0.658156 0.471731
vt 0.703178 0.485388
vt 0.080294 0.419706
vt 0.050447 0.383337
vt 0.050447 0.116663
vt 0.080294 0.080294
vt 0.116663 0.050447
vt 0.383337 0.050447
vt 0.419706 0.080294
vt 0.919706 0.080294
vt 0.883337 0.050447
vt 0.616663 0.050447
vt 0.580294 0.080294
s 0
usemtl ZCity_Hand_Skin_Material
f 1/1/1 2/2/1 4/3/1 3/4/1
f 3/4/2 4/3/2 6/5/2 5/6/2
f 5/6/3 6/5/3 8/7/3 7/8/3
f 7/8/4 8/7/4 10/9/4 9/10/4
f 9/10/5 10/9/5 12/11/5 11/12/5
f 11/12/6 12/11/6 14/13/6 13/14/6
f 13/14/7 14/13/7 16/15/7 15/16/7
f 15/16/8 16/15/8 18/17/8 17/18/8
f 17/18/9 18/17/9 20/19/9 19/20/9
f 19/20/10 20/19/10 22/21/10 21/22/10
f 21/22/11 22/21/11 24/23/11 23/24/11
f 23/24/12 24/23/12 26/25/12 25/26/12
f 25/26/13 26/25/13 28/27/13 27/28/13
f 27/28/14 28/27/14 30/29/14 29/30/14
f 29/30/15 30/29/15 32/31/15 31/32/15
f 31/32/16 32/31/16 34/33/16 33/34/16
f 33/34/17 34/33/17 36/35/17 35/36/17
f 35/36/18 36/35/18 38/37/18 37/38/18
f 37/38/19 38/37/19 40/39/19 39/40/19
f 39/40/20 40/39/20 42/41/20 41/42/20
f 41/42/21 42/41/21 44/43/21 43/44/21
f 43/44/22 44/43/22 46/45/22 45/46/22
f 45/46/23 46/45/23 48/47/23 47/48/23
f 47/48/24 48/47/24 50/49/24 49/50/24
f 49/50/25 50/49/25 52/51/25 51/52/25
f 51/52/26 52/51/26 54/53/26 53/54/26
f 53/54/27 54/53/27 56/55/27 55/56/27
f 55/56/28 56/55/28 58/57/28 57/58/28
f 57/58/29 58/57/29 60/59/29 59/60/29
f 59/60/30 60/59/30 62/61/30 61/62/30
f 4/63/31 2/64/31 64/65/31 62/66/31 60/67/31 58/68/31 56/69/31 54/70/31 52/71/31 50/72/31 48/73/31 46/74/31 44/75/31 42/76/31 40/77/31 38/78/31 36/79/31 34/80/31 32/81/31 30/82/31 28/83/31 26/84/31 24/85/31 22/86/31 20/87/31 18/88/31 16/89/31 14/90/31 12/91/31 10/92/31 8/93/31 6/94/31
f 61/62/32 62/61/32 64/95/32 63/96/32
f 63/96/33 64/95/33 2/97/33 1/98/33
f 1/99/34 3/100/34 5/101/34 7/102/34 9/103/34 11/104/34 13/105/34 15/106/34 17/107/34 19/108/34 21/109/34 23/110/34 25/111/34 27/112/34 29/113/34 31/114/34 33/115/34 35/116/34 37/117/34 39/118/34 41/119/34 43/120/34 45/121/34 47/122/34 49/123/34 51/124/34 53/125/34 55/126/34 57/127/34 59/128/34 61/129/34 63/130/34
f 65/1/35 66/2/35 68/3/35 67/4/35
f 67/4/36 68/3/36 70/5/36 69/6/36
f 69/6/37 70/5/37 72/7/37 71/8/37
f 71/8/38 72/7/38 74/9/38 73/10/38
f 73/10/39 74/9/39 76/11/39 75/12/39
f 75/12/40 76/11/40 78/13/40 77/14/40
f 77/14/41 78/13/41 80/15/41 79/16/41
f 79/16/42 80/15/42 82/17/42 81/18/42
f 81/18/43 82/17/43 84/19/43 83/20/43
f 83/20/44 84/19/44 86/21/44 85/22/44
f 85/22/45 86/21/45 88/23/45 87/24/45
f 87/24/46 88/23/46 90/25/46 89/26/46
f 89/26/47 90/25/47 92/27/47 91/28/47
f 91/28/48 92/27/48 94/29/48 93/30/48
f 93/30/49 94/29/49 96/31/49 95/32/49
f 95/32/50 96/31/50 98/33/50 97/34/50
f 97/34/51 98/33/51 100/35/51 99/36/51
f 99/36/52 100/35/52 102/37/52 101/38/52
f 101/38/53 102/37/53 104/39/53 103/40/53
f 103/40/54 104/39/54 106/41/54 105/42/54
f 105/42/55 106/41/55 108/43/55 107/44/55
f 107/44/56 108/43/56 110/45/56 109/46/56
f 109/46/57 110/45/57 112/47/57 111/48/57
f 111/48/58 112/47/58 114/49/58 113/50/58
f 113/50/59 114/49/59 116/51/59 115/52/59
f 115/52/60 116/51/60 118/53/60 117/54/60
f 117/54/61 118/53/61 120/55/61 119/56/61
f 119/56/62 120/55/62 122/57/62 121/58/62
f 121/58/63 122/57/63 124/59/63 123/60/63
f 123/60/64 124/59/64 126/61/64 125/62/64
f 68/63/65 66/64/65 128/65/65 126/66/65 124/67/65 122/131/65 120/132/65 118/70/65 116/71/65 114/72/65 112/73/65 110/74/65 108/133/65 106/134/65 104/135/65 102/78/65 100/79/65 98/80/65 96/81/65 94/82/65 92/136/65 90/137/65 88/85/65 86/86/65 84/87/65 82/88/65 80/89/65 78/90/65 76/91/65 74/92/65 72/93/65 70/94/65
f 125/62/66 126/61/66 128/95/66 127/96/66
f 127/96/67 128/95/67 66/97/67 65/98/67
f 65/99/68 67/100/68 69/101/68 71/102/68 73/103/68 75/104/68 77/105/68 79/106/68 81/107/68 83/108/68 85/109/68 87/110/68 89/138/68 91/139/68 93/113/68 95/114/68 97/115/68 99/116/68 101/117/68 103/140/68 105/141/68 107/120/68 109/121/68 111/122/68 113/123/68 115/124/68 117/125/68 119/126/68 121/127/68 123/128/68 125/129/68 127/130/68
f 129/1/69 130/2/69 132/3/69 131/4/69
f 131/4/70 132/3/70 134/5/70 133/6/70
f 133/6/71 134/5/71 136/7/71 135/8/71
f 135/8/72 136/7/72 138/9/72 137/10/72
f 137/10/73 138/9/73 140/11/73 139/12/73
f 139/12/74 140/11/74 142/13/74 141/14/74
f 141/14/75 142/13/75 144/15/75 143/16/75
f 143/16/76 144/15/76 146/17/76 145/18/76
f 145/18/77 146/17/77 148/19/77 147/20/77
f 147/20/78 148/19/78 150/21/78 149/22/78
f 149/22/79 150/21/79 152/23/79 151/24/79
f 151/24/80 152/23/80 154/25/80 153/26/80
f 153/26/81 154/25/81 156/27/81 155/28/81
f 155/28/82 156/27/82 158/29/82 157/30/82
f 157/30/83 158/29/83 160/31/83 159/32/83
f 159/32/84 160/31/84 162/33/84 161/34/84
f 161/34/85 162/33/85 164/35/85 163/36/85
f 163/36/86 164/35/86 166/37/86 165/38/86
f 165/38/87 166/37/87 168/39/87 167/40/87
f 167/40/88 168/39/88 170/41/88 169/42/88
f 169/42/89 170/41/89 172/43/89 171/44/89
f 171/44/90 172/43/90 174/45/90 173/46/90
f 173/46/91 174/45/91 176/47/91 175/48/91
f 175/48/92 176/47/92 178/49/92 177/50/92
f 177/50/93 178/49/93 180/51/93 179/52/93
f 179/52/94 180/51/94 182/53/94 181/54/94
f 181/54/95 182/53/95 184/55/95 183/56/95
f 183/56/96 184/55/96 186/57/96 185/58/96
f 185/58/97 186/57/97 188/59/97 187/60/97
f 187/60/98 188/59/98 190/61/98 189/62/98
f 132/63/99 130/64/99 192/65/99 190/66/99 188/67/99 186/68/99 184/69/99 182/70/99 180/71/99 178/72/99 176/73/99 174/74/99 172/75/99 170/76/99 168/77/99 166/78/99 164/79/99 162/80/99 160/81/99 158/82/99 156/83/99 154/84/99 152/85/99 150/86/99 148/87/99 146/88/99 144/89/99 142/90/99 140/91/99 138/92/99 136/93/99 134/94/99
f 189/62/100 190/61/100 192/95/100 191/96/100
f 191/96/101 192/95/101 130/97/101 129/98/101
f 129/99/102 131/100/102 133/101/102 135/102/102 137/103/102 139/104/102 141/105/102 143/106/102 145/107/102 147/108/102 149/109/102 151/110/102 153/111/102 155/112/102 157/113/102 159/114/102 161/115/102 163/116/102 165/117/102 167/118/102 169/119/102 171/120/102 173/121/102 175/122/102 177/123/102 179/124/102 181/125/102 183/126/102 185/127/102 187/128/102 189/129/102 191/130/102
f 193/1/103 194/2/103 196/3/103 195/4/103
f 195/4/104 196/3/104 198/5/104 197/6/104
f 197/6/105 198/5/105 200/7/105 199/8/105
f 199/8/106 200/7/106 202/9/106 201/10/106
f 201/10/107 202/9/107 204/11/107 203/12/107
f 203/12/108 204/11/108 206/13/108 205/14/108
f 205/14/109 206/13/109 208/15/109 207/16/109
f 207/16/110 208/15/110 210/17/110 209/18/110
f 209/18/111 210/17/111 212/19/111 211/20/111
f 211/20/112 212/19/112 214/21/112 213/22/112
f 213/22/113 214/21/113 216/23/113 215/24/113
f 215/24/114 216/23/114 218/25/114 217/26/114
f 217/26/115 218/25/115 220/27/115 219/28/115
f 219/28/116 220/27/116 222/29/116 221/30/116
f 221/30/117 222/29/117 224/31/117 223/32/117
f 223/32/118 224/31/118 226/33/118 225/34/118
f 225/34/119 226/33/119 228/35/119 227/36/119
f 227/36/120 228/35/120 230/37/120 229/38/120
f 229/38/121 230/37/121 232/39/121 231/40/121
f 231/40/122 232/39/122 234/41/122 233/42/122
f 233/42/123 234/41/123 236/43/123 235/44/123
f 235/44/124 236/43/124 238/45/124 237/46/124
f 237/46/125 238/45/125 240/47/125 239/48/125
f 239/48/126 240/47/126 242/49/126 241/50/126
f 241/50/127 242/49/127 244/51/127 243/52/127
f 243/52/128 244/51/128 246/53/128 245/54/128
f 245/54/129 246/53/129 248/55/129 247/56/129
f 247/56/130 248/55/130 250/57/130 249/58/130
f 249/58/131 250/57/131 252/59/131 251/60/131
f 251/60/132 252/59/132 254/61/132 253/62/132
f 196/63/133 194/64/133 256/65/133 254/66/133 252/67/133 250/131/133 248/132/133 246/70/133 244/71/133 242/72/133 240/73/133 238/74/133 236/133/133 234/134/133 232/135/133 230/78/133 228/79/133 226/80/133 224/81/133 222/82/133 220/136/133 218/137/133 216/85/133 214/86/133 212/87/133 210/88/133 208/89/133 206/90/133 204/91/133 202/92/133 200/93/133 198/94/133
f 253/62/134 254/61/134 256/95/134 255/96/134
f 255/96/135 256/95/135 194/97/135 193/98/135
f 193/99/136 195/100/136 197/101/136 199/102/136 201/103/136 203/104/136 205/105/136 207/106/136 209/107/136 211/108/136 213/109/136 215/110/136 217/138/136 219/139/136 221/113/136 223/114/136 225/115/136 227/116/136 229/117/136 231/140/136 233/141/136 235/120/136 237/121/136 239/122/136 241/123/136 243/124/136 245/125/136 247/126/136 249/127/136 251/128/136 253/129/136 255/130/136
